<svg id="visual" viewBox="0 0 960 540" width="960" height="540" xmlns="http://www.w3.org/2000/svg" xmlns:xlink="http://www.w3.org/1999/xlink" version="1.1"><rect x="0" y="0" width="960" height="540" fill="#F5F8FF"></rect><path d="M0 490L22.8 489.2C45.7 488.3 91.3 486.7 137 486.2C182.7 485.7 228.3 486.3 274 488.8C319.7 491.3 365.3 495.7 411.2 493.2C457 490.7 503 481.3 548.8 481.5C594.7 481.7 640.3 491.3 686 491.3C731.7 491.3 777.3 481.7 823 477.2C868.7 472.7 914.3 473.3 937.2 473.7L960 474L960 541L937.2 541C914.3 541 868.7 541 823 541C777.3 541 731.7 541 686 541C640.3 541 594.7 541 548.8 541C503 541 457 541 411.2 541C365.3 541 319.7 541 274 541C228.3 541 182.7 541 137 541C91.3 541 45.7 541 22.8 541L0 541Z" fill="#ffffff" stroke-linecap="round" stroke-linejoin="miter"></path></svg>